<svg width="37" height="37" viewBox="0 0 37 37" fill="none" xmlns="http://www.w3.org/2000/svg">
<path d="M9.07895 26.2577C10.354 25.2827 11.779 24.5137 13.354 23.9507C14.929 23.3887 16.579 23.1077 18.304 23.1077C20.029 23.1077 21.679 23.3887 23.254 23.9507C24.829 24.5137 26.254 25.2827 27.529 26.2577C28.404 25.2327 29.0855 24.0702 29.5735 22.7702C30.0605 21.4702 30.304 20.0827 30.304 18.6077C30.304 15.2827 29.1355 12.4512 26.7985 10.1132C24.4605 7.77617 21.629 6.60767 18.304 6.60767C14.979 6.60767 12.148 7.77617 9.81095 10.1132C7.47295 12.4512 6.30396 15.2827 6.30396 18.6077C6.30396 20.0827 6.54795 21.4702 7.03595 22.7702C7.52295 24.0702 8.20395 25.2327 9.07895 26.2577ZM18.304 20.1077C16.829 20.1077 15.585 19.6017 14.572 18.5897C13.56 17.5767 13.054 16.3327 13.054 14.8577C13.054 13.3827 13.56 12.1387 14.572 11.1257C15.585 10.1137 16.829 9.60767 18.304 9.60767C19.779 9.60767 21.023 10.1137 22.036 11.1257C23.048 12.1387 23.554 13.3827 23.554 14.8577C23.554 16.3327 23.048 17.5767 22.036 18.5897C21.023 19.6017 19.779 20.1077 18.304 20.1077ZM18.304 33.6077C16.229 33.6077 14.279 33.2137 12.454 32.4257C10.629 31.6387 9.04146 30.5702 7.69146 29.2202C6.34146 27.8702 5.27296 26.2827 4.48596 24.4577C3.69796 22.6327 3.30396 20.6827 3.30396 18.6077C3.30396 16.5327 3.69796 14.5827 4.48596 12.7577C5.27296 10.9327 6.34146 9.34517 7.69146 7.99517C9.04146 6.64517 10.629 5.57617 12.454 4.78817C14.279 4.00117 16.229 3.60767 18.304 3.60767C20.379 3.60767 22.329 4.00117 24.154 4.78817C25.979 5.57617 27.5665 6.64517 28.9165 7.99517C30.2665 9.34517 31.335 10.9327 32.122 12.7577C32.91 14.5827 33.304 16.5327 33.304 18.6077C33.304 20.6827 32.91 22.6327 32.122 24.4577C31.335 26.2827 30.2665 27.8702 28.9165 29.2202C27.5665 30.5702 25.979 31.6387 24.154 32.4257C22.329 33.2137 20.379 33.6077 18.304 33.6077Z" fill="#FC427B"/>
</svg>
