<svg width="37" height="36" viewBox="0 0 37 36" fill="none" xmlns="http://www.w3.org/2000/svg">
<path d="M9.33325 21.0993H21.3333V18.1826H9.33325V21.0993ZM9.33325 16.7243H27.3333V13.8076H9.33325V16.7243ZM9.33325 12.3493H27.3333V9.43262H9.33325V12.3493ZM3.33325 32.7659V6.51595C3.33325 5.71387 3.62725 5.02699 4.21525 4.45533C4.80225 3.88463 5.50825 3.59928 6.33325 3.59928H30.3333C31.1583 3.59928 31.8648 3.88463 32.4528 4.45533C33.0398 5.02699 33.3333 5.71387 33.3333 6.51595V24.0159C33.3333 24.818 33.0398 25.5049 32.4528 26.0766C31.8648 26.6473 31.1583 26.9326 30.3333 26.9326H9.33325L3.33325 32.7659Z" fill="#FC427B"/>
</svg>
