<svg width="37" height="37" viewBox="0 0 37 37" fill="none" xmlns="http://www.w3.org/2000/svg">
<g clip-path="url(#clip0_28_41)">
<path d="M7.16696 21.4113L-0.696045 15.0078L17.304 0.757812L35.304 15.0078L27.441 21.4113C25.626 17.6313 21.771 15.0078 17.304 15.0078C12.8385 15.0078 8.98196 17.6298 7.16696 21.4113ZM17.304 15.7578C14.5192 15.7578 11.8485 16.8641 9.87933 18.8332C7.9102 20.8023 6.80396 23.473 6.80396 26.2578C6.80396 29.0426 7.9102 31.7133 9.87933 33.6824C11.8485 35.6516 14.5192 36.7578 17.304 36.7578C20.0887 36.7578 22.7594 35.6516 24.7286 33.6824C26.6977 31.7133 27.804 29.0426 27.804 26.2578C27.804 23.473 26.6977 20.8023 24.7286 18.8332C22.7594 16.8641 20.0887 15.7578 17.304 15.7578Z" fill="#FC427B"/>
</g>
<defs>
<clipPath id="clip0_28_41">
<rect width="36" height="36" fill="white" transform="translate(0.333252 0.757812)"/>
</clipPath>
</defs>
</svg>
