<svg width="28" height="31" viewBox="0 0 28 31" fill="none" xmlns="http://www.w3.org/2000/svg">
<path d="M19.9707 23.4866V18.9866H9.4707V12.9866H19.9707V8.48657L27.4707 15.9866L19.9707 23.4866ZM16.9707 0.986572C17.7664 0.986572 18.5294 1.30264 19.092 1.86525C19.6546 2.42786 19.9707 3.19092 19.9707 3.98657V6.98657H16.9707V3.98657H3.4707V27.9866H16.9707V24.9866H19.9707V27.9866C19.9707 28.7822 19.6546 29.5453 19.092 30.1079C18.5294 30.6705 17.7664 30.9866 16.9707 30.9866H3.4707C2.67505 30.9866 1.91199 30.6705 1.34938 30.1079C0.786774 29.5453 0.470703 28.7822 0.470703 27.9866V3.98657C0.470703 3.19092 0.786774 2.42786 1.34938 1.86525C1.91199 1.30264 2.67505 0.986572 3.4707 0.986572H16.9707Z" fill="#FC427B"/>
</svg>
