<svg width="37" height="37" viewBox="0 0 37 37" fill="none" xmlns="http://www.w3.org/2000/svg">
<path d="M24.9707 26.4866V21.9866H14.4707V15.9866H24.9707V11.4866L32.4707 18.9866L24.9707 26.4866ZM21.9707 3.98657C22.7664 3.98657 23.5294 4.30264 24.092 4.86525C24.6546 5.42786 24.9707 6.19092 24.9707 6.98657V9.98657H21.9707V6.98657H8.4707V30.9866H21.9707V27.9866H24.9707V30.9866C24.9707 31.7822 24.6546 32.5453 24.092 33.1079C23.5294 33.6705 22.7664 33.9866 21.9707 33.9866H8.4707C7.67505 33.9866 6.91199 33.6705 6.34938 33.1079C5.78677 32.5453 5.4707 31.7822 5.4707 30.9866V6.98657C5.4707 6.19092 5.78677 5.42786 6.34938 4.86525C6.91199 4.30264 7.67505 3.98657 8.4707 3.98657H21.9707Z" fill="#FC427B"/>
</svg>
