<svg width="36" height="37" viewBox="0 0 36 37" fill="none" xmlns="http://www.w3.org/2000/svg">
<g clip-path="url(#clip0_28_7)">
<path d="M6.83373 21.4113L-1.02927 15.0078L16.9707 0.757812L34.9707 15.0078L27.1077 21.4113C25.2927 17.6313 21.4377 15.0078 16.9707 15.0078C12.5052 15.0078 8.64873 17.6298 6.83373 21.4113ZM16.9707 15.7578C14.186 15.7578 11.5152 16.8641 9.54611 18.8332C7.57698 20.8023 6.47073 23.473 6.47073 26.2578C6.47073 29.0426 7.57698 31.7133 9.54611 33.6824C11.5152 35.6516 14.186 36.7578 16.9707 36.7578C19.7555 36.7578 22.4262 35.6516 24.3954 33.6824C26.3645 31.7133 27.4707 29.0426 27.4707 26.2578C27.4707 23.473 26.3645 20.8023 24.3954 18.8332C22.4262 16.8641 19.7555 15.7578 16.9707 15.7578Z" fill="#FC427B"/>
</g>
<defs>
<clipPath id="clip0_28_7">
<rect width="36" height="36" fill="white" transform="translate(0 0.757812)"/>
</clipPath>
</defs>
</svg>
