<svg width="36" height="36" viewBox="0 0 36 36" fill="none" xmlns="http://www.w3.org/2000/svg">
<path d="M9 21.0993H21V18.1826H9V21.0993ZM9 16.7243H27V13.8076H9V16.7243ZM9 12.3493H27V9.43262H9V12.3493ZM3 32.7659V6.51595C3 5.71387 3.294 5.02699 3.882 4.45533C4.469 3.88463 5.175 3.59928 6 3.59928H30C30.825 3.59928 31.5315 3.88463 32.1195 4.45533C32.7065 5.02699 33 5.71387 33 6.51595V24.0159C33 24.818 32.7065 25.5049 32.1195 26.0766C31.5315 26.6473 30.825 26.9326 30 26.9326H9L3 32.7659Z" fill="#FC427B"/>
</svg>
