<svg width="35" height="37" viewBox="0 0 35 37" fill="none" xmlns="http://www.w3.org/2000/svg">
<path d="M22.6041 21.7046H21.452L21.0437 21.2996C21.955 20.2105 22.6211 18.9277 22.9942 17.543C23.3674 16.1582 23.4383 14.7058 23.202 13.2896C22.5166 9.11955 19.1332 5.78955 15.0499 5.27955C13.6143 5.09275 12.1563 5.24621 10.7872 5.72819C9.4182 6.21016 8.17451 7.00788 7.15132 8.0603C6.12814 9.11272 5.35258 10.3919 4.88399 11.8001C4.4154 13.2082 4.26621 14.708 4.44782 16.1846C4.94365 20.3846 8.18115 23.8646 12.2353 24.5696C13.6122 24.8126 15.0243 24.7397 16.3706 24.3559C17.7169 23.9721 18.964 23.287 20.0228 22.3496L20.4166 22.7696V23.9546L26.6145 30.3296C27.2124 30.9446 28.1895 30.9446 28.7874 30.3296C29.3853 29.7146 29.3853 28.7096 28.7874 28.0946L22.6041 21.7046ZM13.8541 21.7046C10.2228 21.7046 7.29157 18.6896 7.29157 14.9546C7.29157 11.2196 10.2228 8.20455 13.8541 8.20455C17.4853 8.20455 20.4166 11.2196 20.4166 14.9546C20.4166 18.6896 17.4853 21.7046 13.8541 21.7046Z" fill="#A5A5A5"/>
</svg>
