<svg width="385" height="720" viewBox="0 0 385 720" fill="none" xmlns="http://www.w3.org/2000/svg">
<path d="M179.663 5.93372C179.663 8.87923 182.051 11.267 184.997 11.267C187.942 11.267 190.33 8.87923 190.33 5.93372C190.33 2.9882 187.942 0.600382 184.997 0.600382C182.051 0.600382 179.663 2.9882 179.663 5.93372ZM1.16968 189.836L0.462426 189.129L0.169678 189.422V189.836H1.16968ZM1.16968 308.975H0.169678V309.389L0.462427 309.682L1.16968 308.975ZM90.1928 403.37C90.1928 406.316 92.5806 408.704 95.5261 408.704C98.4716 408.704 100.859 406.316 100.859 403.37C100.859 400.425 98.4716 398.037 95.5261 398.037C92.5806 398.037 90.1928 400.425 90.1928 403.37ZM184.289 5.22675L0.462426 189.129L1.87693 190.543L185.704 6.64068L184.289 5.22675ZM0.169678 189.836V308.975H2.16968V189.836H0.169678ZM0.462427 309.682L94.8189 404.077L96.2334 402.663L1.87693 308.268L0.462427 309.682Z" fill="black"/>
<path d="M204.701 713.727C204.701 710.782 202.314 708.394 199.368 708.394C196.422 708.394 194.035 710.782 194.035 713.727C194.035 716.673 196.422 719.06 199.368 719.06C202.314 719.06 204.701 716.673 204.701 713.727ZM383.195 529.825L383.902 530.532L384.195 530.239V529.825H383.195ZM383.195 410.686H384.195V410.271L383.902 409.979L383.195 410.686ZM294.172 316.291C294.172 313.345 291.784 310.957 288.839 310.957C285.893 310.957 283.505 313.345 283.505 316.291C283.505 319.236 285.893 321.624 288.839 321.624C291.784 321.624 294.172 319.236 294.172 316.291ZM200.075 714.434L383.902 530.532L382.488 529.118L198.661 713.02L200.075 714.434ZM384.195 529.825V410.686H382.195V529.825H384.195ZM383.902 409.979L289.546 315.584L288.131 316.998L382.488 411.393L383.902 409.979Z" fill="black"/>
<g style="mix-blend-mode:multiply">
<path d="M21.1067 193.333L188.809 25.562V193.333L104.958 277.218L188.809 361.103V528.874L21.1067 361.103V193.333Z" fill="#FC427B"/>
</g>
<g style="mix-blend-mode:multiply">
<path d="M356.511 528.668L188.809 696.438V528.668L272.66 444.782L188.809 360.897V193.127L356.511 360.897V528.668Z" fill="#4C6BBE"/>
</g>
<path d="M105.173 277.448L21.1165 193.357V361.539L105.173 277.448Z" fill="#AF204C"/>
<path d="M272.454 444.782L356.511 360.691V528.873L272.454 444.782Z" fill="#182C61"/>
</svg>
