<svg width="122" height="115" viewBox="0 0 122 115" fill="none" xmlns="http://www.w3.org/2000/svg">
<path d="M60.9999 62.2455C65.866 62.2455 70.019 60.6282 73.4589 57.3934C76.8987 54.1587 78.6187 50.2533 78.6187 45.6774C78.6187 41.1014 76.8987 37.1961 73.4589 33.9613C70.019 30.7266 65.866 29.1092 60.9999 29.1092C56.1338 29.1092 51.9808 30.7266 48.5409 33.9613C45.1011 37.1961 43.3812 41.1014 43.3812 45.6774C43.3812 50.2533 45.1011 54.1587 48.5409 57.3934C51.9808 60.6282 56.1338 62.2455 60.9999 62.2455ZM25.7624 100.116C22.9938 100.116 20.6228 99.1893 18.6495 97.3369C16.6796 95.4812 15.6946 93.2516 15.6946 90.6481V24.3755C15.6946 21.7719 16.6796 19.5423 18.6495 17.6867C20.6228 15.8342 22.9938 14.908 25.7624 14.908H96.2374C99.0061 14.908 101.377 15.8342 103.35 17.6867C105.32 19.5423 106.305 21.7719 106.305 24.3755V90.6481C106.305 93.2516 105.32 95.4812 103.35 97.3369C101.377 99.1893 99.0061 100.116 96.2374 100.116H25.7624ZM25.7624 90.6481H96.2374V85.2043C91.7069 81.0228 86.4431 77.7281 80.446 75.3202C74.4455 72.9154 67.9635 71.713 60.9999 71.713C54.0363 71.713 47.556 72.9154 41.5589 75.3202C35.5584 77.7281 30.293 81.0228 25.7624 85.2043V90.6481Z" fill="#929292"/>
</svg>
