<svg width="29" height="30" viewBox="0 0 29 30" fill="none" xmlns="http://www.w3.org/2000/svg">
<path d="M5.16671 25C4.52504 25 3.97593 24.7554 3.51937 24.2663C3.06204 23.7763 2.83337 23.1875 2.83337 22.5V7.5C2.83337 6.8125 3.06204 6.22417 3.51937 5.735C3.97593 5.245 4.52504 5 5.16671 5H23.8334C24.475 5 25.0245 5.245 25.4819 5.735C25.9384 6.22417 26.1667 6.8125 26.1667 7.5V22.5C26.1667 23.1875 25.9384 23.7763 25.4819 24.2663C25.0245 24.7554 24.475 25 23.8334 25H5.16671ZM14.5 16.25L5.16671 10V22.5H23.8334V10L14.5 16.25ZM14.5 13.75L23.8334 7.5H5.16671L14.5 13.75ZM5.16671 10V7.5V22.5V10Z" fill="#A3A3A3"/>
</svg>
