<svg width="27" height="27" viewBox="0 0 27 27" fill="none" xmlns="http://www.w3.org/2000/svg">
<path d="M8.08337 16.875C7.1806 16.875 6.41324 16.5469 5.78129 15.8906C5.14935 15.2344 4.83337 14.4375 4.83337 13.5C4.83337 12.5625 5.14935 11.7656 5.78129 11.1094C6.41324 10.4531 7.1806 10.125 8.08337 10.125C8.98615 10.125 9.75351 10.4531 10.3855 11.1094C11.0174 11.7656 11.3334 12.5625 11.3334 13.5C11.3334 14.4375 11.0174 15.2344 10.3855 15.8906C9.75351 16.5469 8.98615 16.875 8.08337 16.875ZM8.08337 20.25C9.47365 20.25 10.7285 19.8375 11.848 19.0125C12.9674 18.1875 13.7528 17.1 14.2042 15.75H14.5834L16.75 18L18.9167 15.75L21.625 17.9719L25.4167 13.4719L23.2771 11.25H14.2042C13.7709 9.975 13.0082 8.90625 11.9162 8.04375C10.8235 7.18125 9.54587 6.75 8.08337 6.75C6.27782 6.75 4.7431 7.40625 3.47921 8.71875C2.21532 10.0312 1.58337 11.625 1.58337 13.5C1.58337 15.375 2.21532 16.9688 3.47921 18.2812C4.7431 19.5937 6.27782 20.25 8.08337 20.25Z" fill="#A3A3A3"/>
</svg>
