<svg width="58" height="58" viewBox="0 0 58 58" fill="none" xmlns="http://www.w3.org/2000/svg">
<path d="M8.00217 17.983C9.97738 14.0482 13.0075 10.7404 16.7539 8.42947C20.5002 6.11849 24.8152 4.89534 29.2165 4.89673C35.6145 4.89673 40.9893 7.24798 45.0988 11.0836L38.2924 17.8951C35.8306 15.5415 32.7016 14.3421 29.2165 14.3421C23.0322 14.3421 17.7974 18.5221 15.9338 24.1342C15.459 25.5592 15.1884 27.0792 15.1884 28.6467C15.1884 30.2142 15.459 31.7342 15.9338 33.1592C17.7998 38.7737 23.0322 42.9514 29.2165 42.9514C32.4096 42.9514 35.1278 42.1082 37.255 40.6832C38.4881 39.871 39.5439 38.817 40.3583 37.585C41.1728 36.353 41.7291 34.9686 41.9935 33.5155H29.2165V24.329H51.5751C51.8553 25.8822 52.0072 27.502 52.0072 29.1859C52.0072 36.4201 49.4195 42.5096 44.9278 46.6421C41.0012 50.2711 35.6264 52.3967 29.2165 52.3967C26.0985 52.398 23.0109 51.7845 20.13 50.5914C17.2491 49.3983 14.6315 47.6489 12.4268 45.4433C10.222 43.2377 8.4734 40.619 7.28078 37.7369C6.08816 34.8549 5.47495 31.766 5.4762 28.6467C5.4762 24.8135 6.39257 21.1892 8.00217 17.983Z" fill="#545454"/>
</svg>
